<?xml version="1.0" standalone="no"?>
<!DOCTYPE svg PUBLIC "-//W3C//DTD SVG 20010904//EN"
 "http://www.w3.org/TR/2001/REC-SVG-20010904/DTD/svg10.dtd">
<svg version="1.0" xmlns="http://www.w3.org/2000/svg"
 width="785.000000pt" height="785.000000pt" viewBox="0 0 785.000000 785.000000"
 preserveAspectRatio="xMidYMid meet">
<metadata>
Created by potrace 1.14, written by Peter Selinger 2001-2017
</metadata>
<g transform="translate(0.000000,785.000000) scale(0.100000,-0.100000)"
fill="#000000" stroke="none">
<path d="M3844 7770 c-47 -23 -64 -37 -87 -72 -15 -24 -58 -200 -83 -338 -4
-25 -8 -47 -9 -50 -5 -22 -16 -90 -15 -92 1 -2 -4 -16 -10 -32 -6 -16 -13 -45
-16 -65 -3 -20 -18 -99 -34 -176 -106 -511 -132 -639 -146 -715 -3 -14 -16
-77 -29 -140 -31 -150 -35 -171 -39 -195 -21 -131 -95 -204 -207 -205 -64 0
-99 21 -330 205 -657 523 -1031 821 -1084 862 -33 26 -62 50 -65 53 -25 26
-100 76 -129 86 -126 43 -261 -57 -261 -192 0 -41 49 -150 145 -319 12 -22 38
-69 58 -105 19 -36 46 -85 60 -110 13 -25 56 -103 95 -175 38 -71 81 -150 94
-175 31 -56 94 -172 123 -225 12 -22 93 -172 180 -333 142 -263 158 -298 158
-341 -1 -84 -48 -156 -121 -186 -37 -16 -64 -17 -957 -40 -104 -3 -271 -7
-370 -10 -99 -3 -270 -7 -380 -10 -110 -3 -217 -10 -237 -16 -111 -29 -169
-165 -119 -275 25 -55 68 -86 181 -129 52 -20 109 -43 125 -50 17 -7 154 -61
305 -120 151 -58 284 -111 295 -115 11 -5 110 -45 220 -88 110 -43 209 -82
220 -87 11 -5 22 -9 25 -9 3 -1 106 -42 230 -90 198 -78 230 -94 266 -131 41
-42 54 -76 54 -142 0 -73 -28 -111 -186 -248 -32 -27 -68 -59 -80 -70 -12 -11
-53 -47 -90 -80 -37 -33 -78 -69 -90 -80 -12 -11 -50 -45 -84 -75 -35 -30 -68
-59 -74 -65 -6 -5 -47 -42 -91 -80 -44 -39 -85 -74 -91 -80 -15 -14 -153 -137
-174 -155 -28 -25 -162 -144 -186 -165 -12 -11 -50 -45 -85 -75 -197 -170
-234 -209 -252 -259 -42 -127 53 -261 186 -262 29 0 303 87 882 281 462 155
845 283 850 284 6 2 17 6 25 9 90 36 189 19 242 -40 33 -36 59 -111 54 -151
-3 -20 -8 -59 -12 -87 -3 -27 -8 -59 -10 -70 -2 -11 -7 -40 -10 -65 -3 -25 -7
-52 -9 -60 -2 -8 -8 -51 -14 -95 -7 -44 -14 -96 -17 -115 -3 -19 -16 -105 -29
-190 -13 -85 -26 -175 -30 -200 -3 -25 -8 -56 -10 -70 -9 -57 -45 -298 -50
-340 -3 -25 -8 -56 -10 -70 -7 -38 -12 -73 -35 -225 -11 -77 -23 -158 -27
-180 -26 -157 41 -260 177 -272 49 -5 65 -2 107 21 46 25 88 79 168 217 24 41
175 286 261 424 52 83 97 157 101 165 4 8 41 69 82 135 41 66 82 134 91 150
21 36 193 316 225 365 12 19 41 67 65 105 57 94 85 122 140 140 71 23 149 8
198 -38 13 -12 54 -71 91 -132 38 -60 190 -308 338 -550 148 -242 319 -520
379 -617 60 -98 126 -206 146 -240 70 -119 130 -156 230 -145 68 8 121 46 155
110 20 39 21 88 6 182 -7 44 -15 100 -18 125 -4 25 -10 70 -15 100 -5 30 -12
73 -14 95 -3 22 -14 99 -25 170 -11 72 -22 150 -26 175 -3 25 -10 70 -15 100
-5 30 -12 72 -15 93 -11 83 -16 115 -26 177 -5 36 -12 76 -14 90 -2 14 -6 43
-9 65 -4 22 -9 58 -12 80 -11 80 -14 100 -18 125 -3 14 -8 45 -11 70 -3 25
-10 70 -15 100 -12 71 -22 146 -25 190 -7 105 86 202 194 202 34 0 283 -79
931 -296 599 -200 898 -296 927 -296 53 0 91 14 126 48 57 54 80 126 64 203
-10 48 -47 86 -272 284 -38 33 -73 65 -79 70 -6 6 -47 42 -91 80 -44 39 -93
82 -110 97 -16 14 -39 35 -51 45 -64 55 -159 140 -173 153 -9 9 -54 49 -101
90 -46 41 -98 87 -115 102 -16 14 -39 35 -51 45 -37 32 -156 137 -185 163 -93
85 -174 156 -194 172 -59 47 -81 157 -46 233 27 61 65 86 212 144 74 29 148
59 164 66 17 7 68 27 115 45 47 17 99 38 115 45 37 16 161 65 375 148 732 287
832 327 869 355 88 65 93 222 10 299 -50 46 -86 52 -311 58 -267 7 -511 13
-743 20 -99 3 -277 7 -395 10 -514 13 -541 15 -576 31 -72 34 -118 107 -117
187 1 47 65 175 338 672 12 22 41 76 65 120 23 44 50 94 60 110 10 17 34 62
55 100 43 80 59 110 222 410 181 333 176 320 171 384 -9 129 -140 218 -260
176 -29 -10 -104 -60 -128 -85 -3 -3 -43 -35 -90 -73 -47 -37 -169 -133 -271
-214 -102 -82 -203 -161 -223 -178 -90 -71 -163 -129 -196 -155 -30 -24 -287
-228 -389 -308 -18 -15 -41 -34 -51 -42 -10 -8 -27 -22 -37 -30 -10 -8 -40
-32 -65 -53 -26 -21 -63 -44 -82 -52 -92 -39 -208 2 -252 88 -8 15 -53 215
-100 445 -46 229 -86 424 -89 432 -2 8 -7 33 -10 55 -4 22 -8 48 -11 57 -5 17
-10 42 -19 88 -2 14 -21 104 -41 200 -20 96 -38 189 -41 205 -2 17 -8 46 -13
65 -5 19 -12 51 -15 70 -14 82 -56 262 -64 278 -12 23 -61 67 -90 82 -40 20
-123 20 -167 0z"/>
</g>
</svg>
